<svg width="12" height="12" viewBox="0 0 12 12" fill="none"
    xmlns="http://www.w3.org/2000/svg">
    <path d="M3.78954 8.80323H3.78897H2.68048C2.62762 8.80323 2.57676 8.78206 2.53913 8.74409C2.50146 8.7061 2.48015 8.65439 2.48015 8.6003L2.48015 7.45207L2.48015 7.45151C2.47977 7.38512 2.49238 7.31933 2.51725 7.25792C2.5421 7.19655 2.57868 7.14079 2.62487 7.0938C2.6249 7.09377 2.62493 7.09373 2.62496 7.0937L7.92856 1.74377C7.9286 1.74373 7.92864 1.74369 7.92868 1.74365C8.0221 1.65004 8.14825 1.59766 8.27956 1.59766C8.41088 1.59766 8.53703 1.65004 8.63045 1.74365C8.63049 1.74369 8.63053 1.74373 8.63057 1.74377L9.47047 2.59101C9.47051 2.59105 9.47055 2.59109 9.47058 2.59113C9.56342 2.68539 9.61567 2.81305 9.61567 2.94629C9.61567 3.07952 9.56343 3.20716 9.47061 3.30143C9.47057 3.30148 9.47052 3.30152 9.47047 3.30157L4.14303 8.65751C4.14299 8.65755 4.14295 8.6576 4.14291 8.65764C4.09633 8.7042 4.04116 8.741 3.98056 8.76597C3.91992 8.79096 3.855 8.80361 3.78954 8.80323ZM3.78897 8.90089H2.68048C2.60145 8.90089 2.52565 8.86922 2.46977 8.81285C2.41389 8.75648 2.3825 8.68002 2.3825 8.6003V7.45207L3.78897 8.90089ZM3.05806 7.44347L3.02979 7.47201V7.51218V8.14942V8.24708H3.12745H3.75917H3.79987L3.82853 8.21817L8.98362 3.01805L9.05146 2.94962L8.98394 2.88087L8.35222 2.23762L8.28283 2.16696L8.21315 2.23733L3.05806 7.44347ZM10.1651 10.4023H1.83494C1.77028 10.3927 1.71084 10.3602 1.66732 10.3104C1.6225 10.2591 1.59766 10.1929 1.59766 10.1243C1.59766 10.0556 1.6225 9.98942 1.66732 9.93811C1.71084 9.88829 1.77028 9.85584 1.83494 9.84619H10.1651C10.2297 9.85584 10.2892 9.88829 10.3327 9.93811C10.3775 9.98942 10.4023 10.0556 10.4023 10.1243C10.4023 10.1929 10.3775 10.2591 10.3327 10.3104C10.2892 10.3602 10.2297 10.3927 10.1651 10.4023Z" fill="currentColor" stroke="currentColor" stroke-width="0.195312"/>
</svg>
