<svg width="16" height="16" viewBox="0 0 16 16" fill="none"
    xmlns="http://www.w3.org/2000/svg">
    <path d="M5.01393 12.1375C5.09893 12.2102 5.21327 12.242 5.32407 12.2254C5.34283 12.2268 5.3616 12.2282 5.37878 12.2281L7.93025 12.2062C8.06931 12.205 8.1968 12.1304 8.26451 12.0095C8.33223 11.8886 8.33095 11.7402 8.26118 11.622C8.1914 11.5023 8.06265 11.43 7.92359 11.4312L6.26584 11.4454L8.35237 9.32273C8.50262 9.16987 8.50052 8.92457 8.34766 8.77432C8.1948 8.62406 7.9495 8.62617 7.79924 8.77903L5.64765 10.9679L5.63322 9.28828C5.63138 9.07423 5.45646 8.90229 5.24241 8.90412C5.02835 8.90596 4.85641 9.08088 4.85825 9.29494L4.88016 11.8448C4.87956 11.9574 4.92893 12.0647 5.01393 12.1375Z" fill="currentColor"/>
    <path d="M13.504 4.11758C13.419 4.04487 13.3046 4.01304 13.1938 4.02962C13.175 4.02821 13.1563 4.02681 13.1391 4.02696L10.5876 4.04888C10.4486 4.05008 10.3211 4.12461 10.2534 4.24551C10.1857 4.36641 10.1869 4.51484 10.2567 4.633C10.3265 4.75271 10.4552 4.82505 10.5943 4.82385L12.252 4.80961L10.1655 6.9323C10.0153 7.08516 10.0174 7.33046 10.1702 7.48072C10.3231 7.63097 10.5684 7.62887 10.7186 7.47601L12.8702 5.28713L12.8847 6.96675C12.8865 7.18081 13.0614 7.35275 13.2755 7.35091C13.4895 7.34907 13.6615 7.17415 13.6596 6.9601L13.6377 4.41019C13.6383 4.29768 13.589 4.19029 13.504 4.11758Z" fill="currentColor"/>
    <path d="M14.3871 11.0143L14.4002 12.5376C14.4037 12.9454 14.0768 13.2779 13.669 13.2814L4.5756 13.3596C4.1678 13.3631 3.8353 13.0362 3.83179 12.6284L3.75366 3.53503C3.75016 3.12723 4.077 2.79472 4.4848 2.79122L13.5782 2.71309C13.7735 2.71141 13.9617 2.78792 14.1019 2.92422C14.2406 3.06054 14.3203 3.24892 14.322 3.44422L14.3888 11.2158L15.0841 11.2098L15.0443 6.57954L15.0184 3.56168C15.011 2.7039 14.3097 2.01303 13.4504 2.02041L4.60071 2.09645C3.74293 2.10382 3.05206 2.80509 3.05944 3.66443L3.13546 12.5125C3.14283 13.3703 3.8441 14.0612 4.70345 14.0538L13.5516 13.9778C14.4093 13.9704 15.1002 13.2692 15.0928 12.4098L15.0808 11.0083L14.3871 11.0143Z" fill="currentColor"/>
    <path d="M14.3765 9.60492C14.3773 9.69691 14.4146 9.78482 14.4802 9.84931C14.5458 9.9138 14.6344 9.94959 14.7264 9.9488C14.8184 9.94801 14.9063 9.91071 14.9708 9.8451C15.0352 9.77949 15.071 9.69095 15.0702 9.59896C15.0694 9.50697 15.0321 9.41905 14.9665 9.35456C14.9009 9.29007 14.8124 9.25429 14.7204 9.25508C14.6284 9.25587 14.5405 9.29317 14.476 9.35878C14.4115 9.42439 14.3757 9.51293 14.3765 9.60492Z" fill="currentColor"/>
    <path d="M14.3886 11.0143C14.3894 11.1062 14.4267 11.1942 14.4923 11.2586C14.5579 11.3231 14.6464 11.3589 14.7384 11.3581C14.8304 11.3573 14.9183 11.32 14.9828 11.2544C15.0473 11.1888 15.0831 11.1003 15.0823 11.0083C15.0815 10.9163 15.0442 10.8284 14.9786 10.7639C14.913 10.6994 14.8245 10.6636 14.7325 10.6644C14.6405 10.6652 14.5526 10.7025 14.4881 10.7681C14.4236 10.8337 14.3878 10.9223 14.3886 11.0143Z" fill="currentColor"/>
</svg>
