<svg width="18" height="17" viewBox="0 0 18 17" fill="none"
    xmlns="http://www.w3.org/2000/svg">
    <path d="M13.0094 12.1135C13.0835 12.0297 13.1172 11.9159 13.1024 11.8048C13.1041 11.7861 13.1058 11.7673 13.106 11.7501L13.1256 9.19865C13.1267 9.05959 13.0543 8.9309 12.9345 8.86123C12.8147 8.79155 12.6663 8.7904 12.547 8.85824C12.4262 8.92606 12.3517 9.05361 12.3507 9.19267L12.3379 10.8504L10.2495 8.72957C10.0991 8.57684 9.8538 8.57495 9.70107 8.72534C9.54835 8.87573 9.54645 9.12103 9.69684 9.27376L11.8503 11.4608L10.1707 11.4478C9.95665 11.4461 9.78188 11.6182 9.78023 11.8323C9.77858 12.0463 9.95067 12.2211 10.1647 12.2228L12.7147 12.2424C12.8271 12.2449 12.9353 12.1973 13.0094 12.1135Z" fill="currentColor"/>
    <path d="M5.12904 3.49384C5.05496 3.57764 5.02127 3.69145 5.03603 3.8025C5.03433 3.82124 5.03262 3.83998 5.03249 3.85717L5.0128 6.40865C5.01173 6.54771 5.08418 6.6764 5.20396 6.74607C5.32373 6.81575 5.47217 6.8169 5.59144 6.74906C5.71228 6.68124 5.78671 6.55369 5.78778 6.41463L5.80057 4.75687L7.88896 6.87773C8.03935 7.03046 8.28465 7.03235 8.43738 6.88196C8.59011 6.73157 8.592 6.48627 8.44161 6.33354L6.2881 4.14655L7.96774 4.15951C8.1818 4.16116 8.35657 3.98906 8.35822 3.77501C8.35987 3.56095 8.18778 3.38618 7.97372 3.38453L5.4238 3.36486C5.31131 3.36243 5.20313 3.41003 5.12904 3.49384Z" fill="currentColor"/>
    <path d="M12.0392 2.72329L13.5626 2.73504C13.9704 2.73819 14.2975 3.07041 14.2944 3.47821L14.2242 12.5717C14.2211 12.9795 13.8888 13.3066 13.481 13.3035L4.38757 13.2333C3.97977 13.2302 3.65263 12.898 3.65578 12.4902L3.72594 3.39667C3.72744 3.20137 3.80701 3.01448 3.94558 2.87648C4.08414 2.74004 4.2738 2.66338 4.4691 2.66489L12.2407 2.72484L12.2461 2.02955L7.61578 1.99383L4.5979 1.97055C3.74011 1.96393 3.0379 2.65384 3.03127 3.51319L2.96299 12.3629C2.95637 13.2207 3.64629 13.9229 4.50564 13.9296L13.3538 13.9978C14.2116 14.0044 14.9138 13.3145 14.9204 12.4552L14.9887 3.60701C14.9953 2.74922 14.3054 2.047 13.4461 2.04037L12.0445 2.02956L12.0392 2.72329Z" fill="currentColor"/>
    <path d="M10.6299 2.71087C10.7219 2.71158 10.8104 2.67571 10.8759 2.61116C10.9415 2.54662 10.9787 2.45867 10.9794 2.36668C10.9801 2.27468 10.9443 2.18618 10.8797 2.12062C10.8152 2.05507 10.7272 2.01785 10.6352 2.01714C10.5432 2.01643 10.4547 2.05229 10.3892 2.11684C10.3236 2.18139 10.2864 2.26933 10.2857 2.36133C10.285 2.45332 10.3208 2.54183 10.3854 2.60738C10.4499 2.67293 10.5379 2.71016 10.6299 2.71087Z" fill="currentColor"/>
    <path d="M12.0392 2.72173C12.1312 2.72244 12.2197 2.68658 12.2853 2.62203C12.3508 2.55748 12.388 2.46954 12.3887 2.37754C12.3895 2.28555 12.3536 2.19704 12.289 2.13149C12.2245 2.06594 12.1366 2.02871 12.0446 2.028C11.9526 2.02729 11.8641 2.06316 11.7985 2.1277C11.733 2.19225 11.6957 2.2802 11.695 2.37219C11.6943 2.46418 11.7302 2.55269 11.7947 2.61824C11.8593 2.6838 11.9472 2.72102 12.0392 2.72173Z" fill="currentColor"/>
</svg>
