<svg width="16" height="16" viewBox="0 0 16 16" fill="none"
    xmlns="http://www.w3.org/2000/svg">
    <path d="M13.0224 12.1006C13.0958 12.0162 13.1286 11.9022 13.113 11.7912C13.1145 11.7725 13.1161 11.7537 13.1161 11.7365L13.1161 9.18497C13.1161 9.0459 13.0427 8.91778 12.9224 8.84903C12.802 8.78028 12.6536 8.78028 12.5349 8.84903C12.4145 8.91778 12.3411 9.0459 12.3411 9.18497L12.3411 10.8428L10.2364 8.73809C10.0849 8.58653 9.83955 8.58653 9.68798 8.73809C9.53642 8.88965 9.53642 9.13497 9.68798 9.28653L11.8583 11.4568L10.1786 11.4568C9.96455 11.4568 9.79111 11.6303 9.79111 11.8443C9.79111 12.0584 9.96455 12.2318 10.1786 12.2318L12.7286 12.2318C12.8411 12.2334 12.9489 12.185 13.0224 12.1006Z" fill="currentColor"/>
    <path d="M5.11609 3.50671C5.04265 3.59108 5.00984 3.70515 5.02547 3.81608C5.0239 3.83483 5.02234 3.85358 5.02234 3.87077L5.02234 6.42233C5.02234 6.5614 5.09578 6.68952 5.21609 6.75827C5.3364 6.82702 5.48484 6.82702 5.60359 6.75827C5.7239 6.68952 5.79734 6.5614 5.79734 6.42233L5.79734 4.76452L7.90203 6.86921C8.05359 7.02077 8.2989 7.02077 8.45047 6.86921C8.60203 6.71765 8.60203 6.47233 8.45047 6.32077L6.28015 4.15046L7.95984 4.15046C8.1739 4.15046 8.34734 3.97702 8.34734 3.76296C8.34734 3.5489 8.1739 3.37546 7.95984 3.37546L5.40984 3.37546C5.29734 3.3739 5.18953 3.42233 5.11609 3.50671Z" fill="currentColor"/>
    <path d="M12.0392 2.72329L13.5626 2.73504C13.9704 2.73819 14.2975 3.07041 14.2944 3.47821L14.2242 12.5717C14.2211 12.9795 13.8888 13.3066 13.481 13.3035L4.38757 13.2333C3.97977 13.2302 3.65263 12.898 3.65578 12.4902L3.72594 3.39667C3.72744 3.20137 3.80701 3.01448 3.94558 2.87648C4.08414 2.74004 4.2738 2.66338 4.4691 2.66489L12.2407 2.72484L12.2461 2.02955L7.61578 1.99383L4.5979 1.97055C3.74011 1.96393 3.0379 2.65384 3.03127 3.51319L2.96299 12.3629C2.95637 13.2207 3.64629 13.9229 4.50564 13.9296L13.3538 13.9978C14.2116 14.0044 14.9138 13.3145 14.9204 12.4552L14.9887 3.60701C14.9953 2.74922 14.3054 2.047 13.4461 2.04037L12.0445 2.02956L12.0392 2.72329Z" fill="currentColor"/>
    <path d="M10.6299 2.71087C10.7219 2.71158 10.8104 2.67571 10.8759 2.61116C10.9415 2.54662 10.9787 2.45867 10.9794 2.36668C10.9801 2.27468 10.9443 2.18618 10.8797 2.12062C10.8152 2.05507 10.7272 2.01785 10.6352 2.01714C10.5432 2.01643 10.4547 2.05229 10.3892 2.11684C10.3236 2.18139 10.2864 2.26933 10.2857 2.36133C10.285 2.45332 10.3208 2.54183 10.3854 2.60738C10.4499 2.67293 10.5379 2.71016 10.6299 2.71087Z" fill="currentColor"/>
    <path d="M12.0392 2.72173C12.1312 2.72244 12.2197 2.68658 12.2853 2.62203C12.3508 2.55748 12.388 2.46954 12.3887 2.37754C12.3895 2.28555 12.3536 2.19704 12.289 2.13149C12.2245 2.06594 12.1366 2.02871 12.0446 2.028C11.9526 2.02729 11.8641 2.06316 11.7985 2.1277C11.733 2.19225 11.6957 2.2802 11.695 2.37219C11.6943 2.46418 11.7302 2.55269 11.7947 2.61824C11.8593 2.6838 11.9472 2.72102 12.0392 2.72173Z" fill="currentColor"/>
</svg>
