<svg width="14" height="14" viewBox="-2 -2 12 12" fill="none"
    xmlns="http://www.w3.org/2000/svg">
    <path d="M9 4V0.5H9.5V1H6C5.96717 1 5.93465 0.996797 5.90245 0.990392C5.87026 0.983987 5.83899 0.974503 5.80866 0.961939C5.77833 0.949376 5.74951 0.933974 5.72222 0.915735C5.69492 0.897495 5.66966 0.876768 5.64645 0.853554C5.62323 0.830339 5.6025 0.805083 5.58427 0.777785C5.56603 0.750488 5.55062 0.721673 5.53806 0.691342C5.5255 0.66101 5.51601 0.629745 5.50961 0.597545C5.5032 0.565346 5.5 0.53283 5.5 0.5C5.5 0.46717 5.5032 0.434655 5.50961 0.402455C5.51601 0.370255 5.5255 0.33899 5.53806 0.308658C5.55062 0.278327 5.56603 0.249512 5.58427 0.222215C5.6025 0.194917 5.62323 0.169661 5.64645 0.146446C5.66966 0.123232 5.69492 0.102505 5.72222 0.084265C5.74951 0.0660257 5.77833 0.0506242 5.80866 0.0380605C5.83899 0.0254969 5.87026 0.0160126 5.90245 0.00960755C5.93465 0.00320255 5.96717 0 6 0H9.5C9.53283 0 9.56534 0.00320255 9.59754 0.00960755C9.62974 0.0160126 9.66101 0.0254969 9.69134 0.0380605C9.72167 0.0506242 9.75049 0.0660257 9.77779 0.084265C9.80508 0.102505 9.83034 0.123232 9.85355 0.146446C9.87677 0.169661 9.8975 0.194917 9.91574 0.222215C9.93398 0.249512 9.94938 0.278327 9.96194 0.308658C9.9745 0.33899 9.98399 0.370255 9.99039 0.402455C9.9968 0.434655 10 0.46717 10 0.5V4C10 4.03283 9.9968 4.06535 9.99039 4.09755C9.98399 4.12975 9.9745 4.16101 9.96194 4.19134C9.94938 4.22167 9.93398 4.25049 9.91574 4.27778C9.8975 4.30508 9.87677 4.33034 9.85355 4.35356C9.83034 4.37677 9.80508 4.39749 9.77779 4.41573C9.75049 4.43397 9.72167 4.44938 9.69134 4.46194C9.66101 4.4745 9.62974 4.48399 9.59754 4.49039C9.56534 4.4968 9.53283 4.5 9.5 4.5C9.46717 4.5 9.43466 4.4968 9.40246 4.49039C9.37026 4.48399 9.33899 4.4745 9.30866 4.46194C9.27833 4.44938 9.24951 4.43397 9.22221 4.41573C9.19492 4.39749 9.16966 4.37677 9.14645 4.35356C9.12323 4.33034 9.1025 4.30508 9.08426 4.27778C9.06602 4.25049 9.05062 4.22167 9.03806 4.19134C9.0255 4.16101 9.01601 4.12975 9.00961 4.09755C9.0032 4.06535 9 4.03283 9 4ZM10 4C10 4.03283 9.9968 4.06535 9.99039 4.09755C9.98399 4.12975 9.9745 4.16101 9.96194 4.19134C9.94938 4.22167 9.93398 4.25049 9.91574 4.27778C9.8975 4.30508 9.87677 4.33034 9.85355 4.35356C9.83034 4.37677 9.80508 4.39749 9.77779 4.41573C9.75049 4.43397 9.72167 4.44938 9.69134 4.46194C9.66101 4.4745 9.62974 4.48399 9.59754 4.49039C9.56534 4.4968 9.53283 4.5 9.5 4.5C9.46717 4.5 9.43466 4.4968 9.40246 4.49039C9.37026 4.48399 9.33899 4.4745 9.30866 4.46194C9.27833 4.44938 9.24951 4.43397 9.22221 4.41573C9.19492 4.39749 9.16966 4.37677 9.14645 4.35356C9.12323 4.33034 9.1025 4.30508 9.08426 4.27778C9.06602 4.25049 9.05062 4.22167 9.03806 4.19134C9.0255 4.16101 9.01601 4.12975 9.00961 4.09755C9.0032 4.06535 9 4.03283 9 4C9 3.96717 9.0032 3.93465 9.00961 3.90245C9.01601 3.87025 9.0255 3.83899 9.03806 3.80866C9.05062 3.77833 9.06602 3.74951 9.08426 3.72222C9.1025 3.69492 9.12323 3.66966 9.14645 3.64644C9.16966 3.62323 9.19492 3.60251 9.22221 3.58427C9.24951 3.56603 9.27833 3.55062 9.30866 3.53806C9.33899 3.5255 9.37026 3.51601 9.40246 3.5096C9.43466 3.5032 9.46717 3.5 9.5 3.5C9.53283 3.5 9.56534 3.5032 9.59754 3.5096C9.62974 3.51601 9.66101 3.5255 9.69134 3.53806C9.72167 3.55062 9.75049 3.56603 9.77779 3.58427C9.80508 3.60251 9.83034 3.62323 9.85355 3.64644C9.87677 3.66966 9.8975 3.69492 9.91574 3.72222C9.93398 3.74951 9.94938 3.77833 9.96194 3.80866C9.9745 3.83899 9.98399 3.87025 9.99039 3.90245C9.9968 3.93465 10 3.96717 10 4ZM6.5 0.5C6.5 0.53283 6.4968 0.565346 6.49039 0.597545C6.48399 0.629745 6.4745 0.66101 6.46194 0.691342C6.44938 0.721673 6.43397 0.750488 6.41573 0.777785C6.3975 0.805083 6.37677 0.830339 6.35355 0.853554C6.33034 0.876768 6.30508 0.897495 6.27778 0.915735C6.25049 0.933974 6.22167 0.949376 6.19134 0.961939C6.16101 0.974503 6.12974 0.983987 6.09755 0.990392C6.06535 0.996797 6.03283 1 6 1C5.96717 1 5.93465 0.996797 5.90245 0.990392C5.87026 0.983987 5.83899 0.974503 5.80866 0.961939C5.77833 0.949376 5.74951 0.933974 5.72222 0.915735C5.69492 0.897495 5.66966 0.876768 5.64645 0.853554C5.62323 0.830339 5.6025 0.805083 5.58427 0.777785C5.56603 0.750488 5.55062 0.721673 5.53806 0.691342C5.5255 0.66101 5.51601 0.629745 5.50961 0.597545C5.5032 0.565346 5.5 0.53283 5.5 0.5C5.5 0.46717 5.5032 0.434655 5.50961 0.402455C5.51601 0.370255 5.5255 0.33899 5.53806 0.308658C5.55062 0.278327 5.56603 0.249512 5.58427 0.222215C5.6025 0.194917 5.62323 0.169661 5.64645 0.146446C5.66966 0.123232 5.69492 0.102505 5.72222 0.084265C5.74951 0.0660257 5.77833 0.0506242 5.80866 0.0380605C5.83899 0.0254969 5.87026 0.0160126 5.90245 0.00960755C5.93465 0.00320255 5.96717 0 6 0C6.03283 0 6.06535 0.00320255 6.09755 0.00960755C6.12974 0.0160126 6.16101 0.0254969 6.19134 0.0380605C6.22167 0.0506242 6.25049 0.0660257 6.27778 0.084265C6.30508 0.102505 6.33034 0.123232 6.35355 0.146446C6.37677 0.169661 6.3975 0.194917 6.41573 0.222215C6.43397 0.249512 6.44938 0.278327 6.46194 0.308658C6.4745 0.33899 6.48399 0.370255 6.49039 0.402455C6.4968 0.434655 6.5 0.46717 6.5 0.5Z" fill="currentColor"/>
    <path d="M3.5 1H1.25C1.08333 1 1 1.08333 1 1.25V8.75C1 8.91667 1.08333 9 1.25 9H8.75C8.91667 9 9 8.91667 9 8.75V6.3684C9 6.3356 9.0032 6.3031 9.0096 6.2709C9.016 6.2387 9.02548 6.20743 9.03805 6.1771C9.05062 6.14677 9.06602 6.11795 9.08425 6.09065C9.10248 6.06335 9.12322 6.03808 9.14645 6.01485C9.16965 5.99165 9.1949 5.97093 9.2222 5.9527C9.2495 5.93447 9.27832 5.91907 9.30865 5.9065C9.33898 5.89393 9.37025 5.88445 9.40245 5.87805C9.43465 5.87162 9.46717 5.8684 9.5 5.8684C9.53283 5.8684 9.56535 5.87162 9.59755 5.87805C9.62975 5.88445 9.66102 5.89393 9.69135 5.9065C9.72168 5.91907 9.7505 5.93447 9.7778 5.9527C9.8051 5.97093 9.83035 5.99165 9.85355 6.01485C9.87675 6.03808 9.89748 6.06335 9.91575 6.09065C9.93398 6.11795 9.94938 6.14677 9.96195 6.1771C9.97452 6.20743 9.984 6.2387 9.9904 6.2709C9.9968 6.3031 10 6.3356 10 6.3684V8.75C10 9.0952 9.87797 9.38983 9.6339 9.6339C9.38983 9.87797 9.0952 10 8.75 10H1.25C0.904822 10 0.610195 9.87797 0.366119 9.6339C0.12204 9.3898 0 9.09517 0 8.75V1.25C0 0.904823 0.122039 0.610195 0.366117 0.366117C0.610195 0.122039 0.904823 0 1.25 0H3.5C3.53283 0 3.56535 0.00320255 3.59755 0.00960755C3.62975 0.0160126 3.66101 0.0254969 3.69134 0.0380605C3.72167 0.0506242 3.75049 0.0660257 3.77778 0.084265C3.80508 0.102505 3.83034 0.123232 3.85356 0.146446C3.87677 0.169661 3.89749 0.194917 3.91573 0.222215C3.93397 0.249512 3.94938 0.278327 3.96194 0.308658C3.9745 0.33899 3.98399 0.370255 3.99039 0.402455C3.9968 0.434655 4 0.46717 4 0.5C4 0.53283 3.9968 0.565346 3.99039 0.597545C3.98399 0.629745 3.9745 0.66101 3.96194 0.691342C3.94938 0.721673 3.93397 0.750488 3.91573 0.777785C3.89749 0.805083 3.87677 0.830339 3.85356 0.853554C3.83034 0.876768 3.80508 0.897495 3.77778 0.915735C3.75049 0.933974 3.72167 0.949376 3.69134 0.961939C3.66101 0.974503 3.62975 0.983987 3.59755 0.990392C3.56535 0.996797 3.53283 1 3.5 1ZM4 0.5C4 0.53283 3.9968 0.565346 3.99039 0.597545C3.98399 0.629745 3.9745 0.66101 3.96194 0.691342C3.94938 0.721673 3.93397 0.750488 3.91573 0.777785C3.89749 0.805083 3.87677 0.830339 3.85356 0.853554C3.83034 0.876768 3.80508 0.897495 3.77778 0.915735C3.75049 0.933974 3.72167 0.949376 3.69134 0.961939C3.66101 0.974503 3.62975 0.983987 3.59755 0.990392C3.56535 0.996797 3.53283 1 3.5 1C3.46717 1 3.43465 0.996797 3.40245 0.990392C3.37025 0.983987 3.33899 0.974503 3.30866 0.961939C3.27833 0.949376 3.24951 0.933974 3.22222 0.915735C3.19492 0.897495 3.16966 0.876768 3.14644 0.853554C3.12323 0.830339 3.10251 0.805083 3.08427 0.777785C3.06603 0.750488 3.05062 0.721673 3.03806 0.691342C3.0255 0.66101 3.01601 0.629745 3.0096 0.597545C3.0032 0.565346 3 0.53283 3 0.5C3 0.46717 3.0032 0.434655 3.0096 0.402455C3.01601 0.370255 3.0255 0.33899 3.03806 0.308658C3.05062 0.278327 3.06603 0.249512 3.08427 0.222215C3.10251 0.194917 3.12323 0.169661 3.14644 0.146446C3.16966 0.123232 3.19492 0.102505 3.22222 0.084265C3.24951 0.0660257 3.27833 0.0506242 3.30866 0.0380605C3.33899 0.0254969 3.37025 0.0160126 3.40245 0.00960755C3.43465 0.00320255 3.46717 0 3.5 0C3.53283 0 3.56535 0.00320255 3.59755 0.00960755C3.62975 0.0160126 3.66101 0.0254969 3.69134 0.0380605C3.72167 0.0506242 3.75049 0.0660257 3.77778 0.084265C3.80508 0.102505 3.83034 0.123232 3.85356 0.146446C3.87677 0.169661 3.89749 0.194917 3.91573 0.222215C3.93397 0.249512 3.94938 0.278327 3.96194 0.308658C3.9745 0.33899 3.98399 0.370255 3.99039 0.402455C3.9968 0.434655 4 0.46717 4 0.5ZM10 6.3684C10 6.40123 9.9968 6.43375 9.9904 6.46595C9.984 6.49815 9.97452 6.52942 9.96195 6.55975C9.94938 6.59008 9.93398 6.6189 9.91575 6.6462C9.89748 6.6735 9.87675 6.69877 9.85355 6.722C9.83035 6.7452 9.8051 6.76592 9.7778 6.78415C9.7505 6.80238 9.72168 6.81778 9.69135 6.83035C9.66102 6.84292 9.62975 6.8524 9.59755 6.8588C9.56535 6.8652 9.53283 6.8684 9.5 6.8684C9.46717 6.8684 9.43465 6.8652 9.40245 6.8588C9.37025 6.8524 9.33898 6.84292 9.30865 6.83035C9.27832 6.81778 9.2495 6.80238 9.2222 6.78415C9.1949 6.76592 9.16965 6.7452 9.14645 6.722C9.12322 6.69877 9.10248 6.6735 9.08425 6.6462C9.06602 6.6189 9.05062 6.59008 9.03805 6.55975C9.02548 6.52942 9.016 6.49815 9.0096 6.46595C9.0032 6.43375 9 6.40123 9 6.3684C9 6.3356 9.0032 6.3031 9.0096 6.2709C9.016 6.2387 9.02548 6.20743 9.03805 6.1771C9.05062 6.14677 9.06602 6.11795 9.08425 6.09065C9.10248 6.06335 9.12322 6.03808 9.14645 6.01485C9.16965 5.99165 9.1949 5.97093 9.2222 5.9527C9.2495 5.93447 9.27832 5.91907 9.30865 5.9065C9.33898 5.89393 9.37025 5.88445 9.40245 5.87805C9.43465 5.87162 9.46717 5.8684 9.5 5.8684C9.53283 5.8684 9.56535 5.87162 9.59755 5.87805C9.62975 5.88445 9.66102 5.89393 9.69135 5.9065C9.72168 5.91907 9.7505 5.93447 9.7778 5.9527C9.8051 5.97093 9.83035 5.99165 9.85355 6.01485C9.87675 6.03808 9.89748 6.06335 9.91575 6.09065C9.93398 6.11795 9.94938 6.14677 9.96195 6.1771C9.97452 6.20743 9.984 6.2387 9.9904 6.2709C9.9968 6.3031 10 6.3356 10 6.3684Z" fill="currentColor"/>
    <path d="M9.62863 1.07856L5.80363 4.90356C5.78041 4.92677 5.75516 4.9475 5.72786 4.96574C5.70056 4.98398 5.67175 4.99938 5.64142 5.01195C5.61108 5.02451 5.57982 5.034 5.54762 5.0404C5.51542 5.04681 5.4829 5.05001 5.45007 5.05001C5.41724 5.05001 5.38473 5.04681 5.35253 5.0404C5.32033 5.034 5.28906 5.02451 5.25873 5.01195C5.2284 4.99938 5.19959 4.98398 5.17229 4.96575C5.14499 4.94751 5.11973 4.92678 5.09652 4.90356C5.07331 4.88035 5.05258 4.85509 5.03434 4.82779C5.0161 4.80049 5.0007 4.77168 4.98813 4.74135C4.97557 4.71102 4.96609 4.67975 4.95968 4.64756C4.95328 4.61536 4.95007 4.58284 4.95007 4.55001C4.95007 4.51718 4.95328 4.48466 4.95968 4.45247C4.96609 4.42027 4.97557 4.389 4.98813 4.35867C5.0007 4.32834 5.0161 4.29952 5.03434 4.27223C5.05258 4.24493 5.07331 4.21967 5.09652 4.19646L8.92152 0.371453C8.94474 0.348238 8.96999 0.327511 8.99729 0.309272C9.02459 0.291032 9.0534 0.27563 9.08373 0.263067C9.11406 0.250503 9.14533 0.241019 9.17753 0.234614C9.20973 0.228209 9.24224 0.225006 9.27507 0.225006C9.3079 0.225006 9.34042 0.228209 9.37262 0.234614C9.40482 0.241018 9.43608 0.250502 9.46641 0.263066C9.49675 0.27563 9.52556 0.291031 9.55286 0.309271C9.58015 0.327511 9.60541 0.348238 9.62863 0.371453C9.65184 0.394667 9.67257 0.419923 9.69081 0.447221C9.70905 0.474518 9.72445 0.503333 9.73701 0.533664C9.74958 0.563995 9.75906 0.595261 9.76546 0.627461C9.77187 0.65966 9.77507 0.692175 9.77507 0.725006C9.77507 0.757836 9.77187 0.790351 9.76546 0.822551C9.75906 0.854751 9.74958 0.886016 9.73701 0.916348C9.72445 0.946679 9.70905 0.975493 9.69081 1.00279C9.67257 1.03009 9.65184 1.05534 9.62863 1.07856ZM9.77507 0.725006C9.77507 0.757837 9.77187 0.790352 9.76546 0.822551C9.75906 0.854751 9.74958 0.886016 9.73701 0.916348C9.72445 0.946679 9.70905 0.975494 9.69081 1.00279C9.67257 1.03009 9.65184 1.05534 9.62863 1.07856C9.60541 1.10177 9.58015 1.1225 9.55286 1.14074C9.52556 1.15898 9.49675 1.17438 9.46641 1.18695C9.43608 1.19951 9.40482 1.20899 9.37262 1.2154C9.34042 1.2218 9.3079 1.22501 9.27507 1.22501C9.24224 1.22501 9.20973 1.2218 9.17753 1.2154C9.14533 1.20899 9.11406 1.19951 9.08373 1.18695C9.0534 1.17438 9.02459 1.15898 8.99729 1.14074C8.96999 1.1225 8.94474 1.10177 8.92152 1.07856C8.8983 1.05534 8.87758 1.03009 8.85934 1.00279C8.8411 0.975494 8.8257 0.946679 8.81313 0.916348C8.80057 0.886016 8.79109 0.854751 8.78468 0.822551C8.77828 0.790352 8.77507 0.757837 8.77507 0.725006C8.77507 0.692176 8.77828 0.659661 8.78468 0.627461C8.79109 0.595261 8.80057 0.563996 8.81313 0.533665C8.8257 0.503333 8.8411 0.474518 8.85934 0.447221C8.87758 0.419923 8.8983 0.394667 8.92152 0.371453C8.94474 0.348238 8.96999 0.327511 8.99729 0.309271C9.02459 0.291032 9.0534 0.27563 9.08373 0.263067C9.11406 0.250503 9.14533 0.241019 9.17753 0.234614C9.20973 0.228209 9.24224 0.225006 9.27507 0.225006C9.3079 0.225006 9.34042 0.228209 9.37262 0.234614C9.40482 0.241019 9.43608 0.250503 9.46641 0.263067C9.49675 0.27563 9.52556 0.291032 9.55286 0.309271C9.58015 0.327511 9.60541 0.348238 9.62863 0.371453C9.65184 0.394667 9.67257 0.419923 9.69081 0.447221C9.70905 0.474518 9.72445 0.503333 9.73701 0.533665C9.74958 0.563996 9.75906 0.595261 9.76546 0.627461C9.77187 0.659661 9.77507 0.692176 9.77507 0.725006ZM5.95007 4.55001C5.95007 4.58284 5.94687 4.61536 5.94047 4.64756C5.93406 4.67975 5.92458 4.71102 5.91201 4.74135C5.89945 4.77168 5.88405 4.80049 5.86581 4.82779C5.84757 4.85509 5.82684 4.88035 5.80363 4.90356C5.78041 4.92677 5.75516 4.9475 5.72786 4.96574C5.70056 4.98398 5.67175 4.99938 5.64141 5.01195C5.61108 5.02451 5.57982 5.034 5.54762 5.0404C5.51542 5.04681 5.4829 5.05001 5.45007 5.05001C5.41724 5.05001 5.38473 5.04681 5.35253 5.0404C5.32033 5.034 5.28906 5.02451 5.25873 5.01195C5.2284 4.99938 5.19959 4.98398 5.17229 4.96574C5.14499 4.9475 5.11973 4.92677 5.09652 4.90356C5.07331 4.88035 5.05258 4.85509 5.03434 4.82779C5.0161 4.80049 5.0007 4.77168 4.98813 4.74135C4.97557 4.71102 4.96609 4.67975 4.95968 4.64756C4.95328 4.61536 4.95007 4.58284 4.95007 4.55001C4.95007 4.51718 4.95328 4.48466 4.95968 4.45246C4.96609 4.42026 4.97557 4.389 4.98813 4.35867C5.0007 4.32834 5.0161 4.29952 5.03434 4.27222C5.05258 4.24492 5.07331 4.21967 5.09652 4.19646C5.11973 4.17324 5.14499 4.15251 5.17229 4.13428C5.19959 4.11604 5.2284 4.10063 5.25873 4.08807C5.28906 4.0755 5.32033 4.06602 5.35253 4.05962C5.38473 4.05321 5.41724 4.05001 5.45007 4.05001C5.4829 4.05001 5.51542 4.05321 5.54762 4.05962C5.57982 4.06602 5.61108 4.0755 5.64141 4.08807C5.67175 4.10063 5.70056 4.11603 5.72786 4.13427C5.75516 4.15251 5.78041 4.17324 5.80363 4.19646C5.82684 4.21967 5.84757 4.24492 5.86581 4.27222C5.88405 4.29952 5.89945 4.32834 5.91201 4.35867C5.92458 4.389 5.93406 4.42026 5.94047 4.45246C5.94687 4.48466 5.95007 4.51718 5.95007 4.55001Z" fill="currentColor"/>
</svg>
