<svg width="14" height="14" viewBox="0 0 14 14" fill="none"
    xmlns="http://www.w3.org/2000/svg">
    <path d="M11.4325 6.89335C11.2096 6.89335 11.0292 7.07382 11.0292 7.29667V11.0551H2.95181V2.97772H6.64595C6.8688 2.97772 7.04927 2.79725 7.04927 2.5744C7.04927 2.35155 6.8688 2.17108 6.64595 2.17108H2.95181C2.82192 2.17108 2.70571 2.18749 2.60728 2.2203L2.80825 2.83417L2.60728 2.2203C2.39946 2.28866 2.26138 2.42675 2.19302 2.63456C2.1602 2.733 2.1438 2.84921 2.1438 2.97909V11.0564C2.1438 11.1877 2.1602 11.3025 2.19302 11.4023C2.26138 11.6088 2.39946 11.7482 2.60728 11.8152L2.80825 11.2014L2.60728 11.8152C2.70708 11.848 2.82192 11.8644 2.95181 11.8644H11.0292C11.1604 11.8644 11.2752 11.848 11.375 11.8152L11.1741 11.2014L11.375 11.8152C11.5829 11.7482 11.7209 11.6088 11.7893 11.4023C11.8221 11.3025 11.8385 11.1877 11.8385 11.0564V7.29803C11.8372 7.07382 11.6567 6.89335 11.4325 6.89335Z" fill="currentColor"/>
    <path d="M11.7893 2.63322C11.7209 2.4254 11.5828 2.28732 11.375 2.21896L11.174 2.83282L11.375 2.21896C11.2752 2.18615 11.1604 2.16974 11.0291 2.16974H8.98242C8.75957 2.16974 8.5791 2.35021 8.5791 2.57306C8.5791 2.79591 8.76094 2.97638 8.98242 2.97638H10.3236L6.45586 6.84552C6.29727 7.00275 6.29727 7.25841 6.45586 7.417C6.53516 7.4963 6.6377 7.53458 6.7416 7.53458C6.84414 7.53458 6.94805 7.49493 7.02734 7.417L11.025 3.41798C11.0264 3.41661 11.0264 3.41388 11.0291 3.41251V5.08595C11.0291 5.3088 11.2096 5.48927 11.4324 5.48927C11.6553 5.48927 11.8371 5.3088 11.8371 5.08595V2.97775C11.8371 2.8465 11.8207 2.73165 11.7893 2.63322Z" fill="currentColor"/>
</svg>
