<svg width="18" height="18" viewBox="0 0 18 18" fill="none"
    xmlns="http://www.w3.org/2000/svg">
    <path d="M7.07169 13.5615C6.634 13.5615 6.18927 13.5527 5.7463 13.5229C5.72169 13.5211 5.69708 13.5176 5.67247 13.5123L5.54591 13.4859C5.27697 13.4315 4.97462 13.3717 4.67755 13.224C4.63712 13.2152 4.58966 13.2012 4.54044 13.1783C4.33829 13.0869 4.16251 12.9815 3.95861 12.8531C3.58947 12.6264 3.31173 12.3715 3.09201 12.0551L3.02872 11.9918C3.01818 11.9813 3.00939 11.9707 2.99884 11.9602C2.45216 11.3168 2.25001 10.5557 2.11115 9.8297C2.10939 9.82091 2.10763 9.81036 2.10587 9.80157C2.07072 9.54317 2.06544 9.28478 2.08654 8.98771C2.08829 8.97364 2.08829 8.95958 2.09181 8.94552C2.09884 8.90509 2.1006 8.85763 2.10411 8.80314C2.1129 8.65548 2.12521 8.4586 2.22189 8.24942C2.25529 8.07716 2.31154 7.84689 2.42755 7.60958C2.65607 7.06993 3.01993 6.58478 3.53673 6.12599C3.57892 6.08732 3.62111 6.06095 3.65802 6.04161C3.78634 5.92735 3.91466 5.84825 4.03068 5.77618C4.07111 5.75157 4.10802 5.72872 4.14494 5.70411C4.38751 5.54415 4.71447 5.61095 4.87618 5.85528C5.03615 6.09786 4.96935 6.42482 4.72501 6.58653C4.67579 6.61817 4.63009 6.6463 4.58615 6.67442C4.48068 6.73946 4.39806 6.79044 4.33126 6.85724C4.28204 6.90646 4.22931 6.93985 4.18536 6.96271C3.81271 7.30372 3.55255 7.65528 3.39435 8.03497C3.38908 8.04552 3.38556 8.05607 3.38029 8.06661C3.32052 8.1879 3.27833 8.32325 3.24845 8.50782C3.2379 8.5711 3.21681 8.63087 3.18341 8.68712C3.16759 8.71525 3.16232 8.77501 3.15704 8.86993C3.15353 8.93321 3.14826 9.00528 3.13771 9.08439C3.12365 9.29356 3.12716 9.47286 3.15001 9.6504C3.27658 10.3113 3.43478 10.8387 3.78986 11.2641L3.87247 11.3467C3.89708 11.3713 3.91994 11.3977 3.93927 11.4275C4.0799 11.6385 4.25743 11.802 4.51408 11.9602C4.51759 11.9619 4.51935 11.9637 4.52286 11.9654C4.66876 12.0586 4.79357 12.1342 4.92189 12.1975C4.96759 12.2063 5.02384 12.2221 5.08361 12.252L5.1047 12.2625C5.28751 12.3645 5.51603 12.4102 5.75685 12.4594C5.79025 12.4664 5.82189 12.4734 5.85529 12.4787C6.6006 12.5262 7.36349 12.5139 8.10177 12.5016C8.56408 12.4945 9.04044 12.4858 9.51681 12.4928C9.80861 12.4963 10.0406 12.7354 10.0371 13.0272C10.0336 13.3154 9.79806 13.5475 9.50978 13.5475H9.50275C9.0422 13.5422 8.57286 13.5492 8.11935 13.5563C7.7713 13.5545 7.42325 13.5615 7.07169 13.5615ZM4.26622 6.88536C4.26447 6.88712 4.26447 6.88712 4.26622 6.88536C4.26447 6.88712 4.26447 6.88712 4.26622 6.88536Z" fill="currentColor"/>
    <path d="M13.7197 12.9533C13.5475 12.9533 13.377 12.8689 13.2768 12.7125C13.1186 12.4682 13.1889 12.1412 13.4332 11.983C13.8973 11.6824 14.2031 11.3783 14.3912 11.025C14.4141 10.9811 14.4439 10.9406 14.4791 10.9037C14.5916 10.691 14.6725 10.4801 14.7182 10.2709C14.727 10.2287 14.7428 10.1883 14.7621 10.1496C14.7691 10.1373 14.7727 10.1285 14.7762 10.1232C14.8395 9.81914 14.8711 9.51152 14.8711 9.18281C14.8553 8.80137 14.792 8.47441 14.6777 8.18262C14.5863 7.94707 14.465 7.72207 14.2963 7.47773L14.2805 7.45664C14.1557 7.2914 14.0572 7.15781 13.9236 7.04531C13.841 6.98554 13.7689 6.92578 13.6986 6.86953C13.5773 6.77109 13.4736 6.68496 13.3646 6.6375C13.3066 6.61289 13.2539 6.57597 13.2082 6.53203C12.8268 6.32988 12.4488 6.21387 12.085 6.18926C11.3115 6.1541 10.6348 6.14355 10.0178 6.15762C9.66621 6.17695 9.31289 6.17344 8.97012 6.17168C8.71172 6.16992 8.46738 6.16816 8.22305 6.17519C7.93125 6.18222 7.68867 5.95371 7.68164 5.66191C7.67285 5.37012 7.90312 5.12754 8.19492 5.12051C8.45684 5.11347 8.72226 5.11523 8.97891 5.11699C9.32344 5.12051 9.64687 5.12226 9.96855 5.10469H9.98613C10.6312 5.08887 11.3361 5.10117 12.1395 5.13808H12.15C12.6914 5.175 13.2398 5.34551 13.783 5.64609C13.8199 5.66719 13.8533 5.69004 13.8832 5.71992C14.0783 5.82012 14.2312 5.94492 14.3666 6.05742C14.4316 6.11015 14.4932 6.16113 14.5547 6.20508C14.5652 6.21211 14.5758 6.2209 14.5863 6.22969C14.8201 6.4248 14.9748 6.63047 15.1242 6.83086L15.1471 6.86074C15.1506 6.86601 15.1559 6.87304 15.1594 6.87832C15.3773 7.19648 15.5373 7.4918 15.6586 7.80644C15.8168 8.21074 15.9029 8.65371 15.924 9.1582V9.1793C15.924 9.60117 15.8818 9.99844 15.7975 10.3904C15.7939 10.4098 15.7887 10.4273 15.7816 10.4449C15.7658 10.4941 15.7482 10.5363 15.7324 10.5697C15.6568 10.8773 15.5338 11.1867 15.3633 11.4891C15.3404 11.5295 15.3123 11.5664 15.2807 11.5998C15.0047 12.0867 14.5969 12.4928 14.0045 12.876C13.9166 12.927 13.8182 12.9533 13.7197 12.9533Z" fill="currentColor"/>
    <path d="M9.02109 7.81524C8.88574 7.81524 8.75039 7.76426 8.64844 7.66055L7.01191 6.02403C6.80625 5.81837 6.80625 5.48438 7.01191 5.27872L8.64844 3.64219C8.8541 3.43653 9.18809 3.43653 9.39375 3.64219C9.59941 3.84786 9.59941 4.18184 9.39375 4.38751L8.12988 5.65137L9.39375 6.91524C9.59941 7.1209 9.59941 7.45489 9.39375 7.66055C9.2918 7.76426 9.15645 7.81524 9.02109 7.81524Z" fill="currentColor"/>
    <path d="M8.9279 15.1858C8.79255 15.1858 8.6572 15.1348 8.55525 15.0311C8.34958 14.8254 8.34958 14.4914 8.55525 14.2858L9.81912 13.0219L8.55525 11.758C8.34958 11.5524 8.34958 11.2184 8.55525 11.0127C8.76091 10.807 9.0949 10.807 9.30056 11.0127L10.9371 12.6492C11.0355 12.7477 11.0918 12.883 11.0918 13.0219C11.0918 13.1625 11.0355 13.2961 10.9371 13.3945L9.30056 15.0311C9.19861 15.133 9.06326 15.1858 8.9279 15.1858Z" fill="currentColor"/>
</svg>
