<svg width="14" height="14" viewBox="0 0 14 14" fill="none"
    xmlns="http://www.w3.org/2000/svg">
    <path d="M4.5843 4.00942H9.41064C8.91547 1.86981 7.93367 0.450535 6.99619 0.450535C6.05871 0.450535 5.07946 1.86981 4.5843 4.00942ZM3.41074 6.99015C3.40973 6.27672 3.46329 5.56427 3.57097 4.8591H0.332388C-0.11881 6.27536 -0.110454 7.7991 0.356251 9.21028H3.58716C3.4695 8.47615 3.41051 7.73374 3.41074 6.99015ZM9.57512 4.8591H4.41982C4.19693 6.30123 4.20182 7.76968 4.4343 9.21028H9.56063C9.68013 8.47635 9.7397 7.73384 9.73876 6.99015C9.73939 6.27661 9.68468 5.5641 9.57512 4.8591ZM9.39018 10.06H4.60476C5.10674 12.1499 6.0749 13.5298 6.9979 13.5298C7.92089 13.5298 8.8882 12.1499 9.39018 10.06ZM13.6438 9.21028C14.1101 7.79908 14.1188 6.27555 13.6685 4.8591H10.4299C10.5376 5.56427 10.5912 6.27672 10.5902 6.99015C10.5924 7.73358 10.5354 8.47599 10.4197 9.21028H13.6438ZM10.2612 4.00942H13.3293C12.8146 2.91093 12.0263 1.96464 11.0409 1.26221C10.0554 0.559774 8.90615 0.125002 7.70442 0C8.85837 0.447966 9.79415 1.96574 10.2612 4.00942ZM3.75761 10.06H0.69545C1.22212 11.1499 2.01937 12.085 3.0103 12.7751C4.00122 13.4653 5.15238 13.8871 6.35274 14C5.19026 13.594 4.23658 12.0968 3.75761 10.06ZM10.2416 10.06C9.75836 12.0968 8.80468 13.594 7.6422 14C8.84256 13.8871 9.99372 13.4653 10.9846 12.7751C11.9756 12.085 12.7728 11.1499 13.2995 10.06H10.2416ZM3.73375 4.00942C4.20079 1.96574 5.13742 0.447966 6.29052 0C5.08872 0.124759 3.93936 0.559435 2.95386 1.2619C1.96837 1.96436 1.18015 2.91078 0.665621 4.00942H3.73375Z" fill="currentColor"/>
</svg>
